<svg width="108" height="108" viewBox="0 0 108 108" fill="none" xmlns="http://www.w3.org/2000/svg">
<g filter="url(#filter0_d_9_14)">
<rect x="4" width="100" height="100" rx="10" fill="black"/>
<path d="M34.4126 26.7325C33.1539 27.3566 32.1107 28.3694 31.3811 29.6156C30.6514 30.8619 30.2328 32.3463 30.2323 33.9321C30.2323 34.5339 30.7209 35.0229 31.3238 35.0229C31.9261 35.0229 32.4142 34.5338 32.4142 33.9321C32.4142 32.7331 32.732 31.6268 33.2639 30.7181C33.796 29.8094 34.5396 29.1044 35.3807 28.6877C35.9203 28.4205 36.1417 27.7655 35.8745 27.2264C35.6068 26.6853 34.9523 26.4654 34.4126 26.7325Z" fill="white"/>
<path d="M43.1475 21.1411C41.5806 20.408 39.8468 20 38.033 20C36.2196 20 34.4859 20.408 32.9185 21.1411C30.5665 22.2406 28.5876 24.0656 27.1968 26.34C25.8059 28.6163 25 31.3489 25 34.2773C25 37.4362 25.9375 40.3665 27.5358 42.7422C28.9687 44.8709 30.9378 46.5581 33.2436 47.5563V55.3721H33.1047C32.4488 55.3721 31.9172 55.9036 31.9172 56.5595V72.5574V72.5622C31.9172 75.94 34.6557 78.6775 38.033 78.6775C41.4105 78.6775 44.1488 75.9402 44.1488 72.5622V56.5593C44.1488 55.9036 43.6173 55.372 42.9619 55.372H42.8225V47.5562C45.1282 46.558 47.0979 44.8708 48.5303 42.7421C50.1285 40.3664 51.066 37.4361 51.066 34.2772C51.0655 30.3717 49.6347 26.8173 47.2908 24.2255C46.1185 22.9303 44.7154 21.8741 43.1475 21.1411ZM38.033 73.3127C37.1403 73.3127 36.4169 72.5893 36.4169 71.6971C36.4169 70.8039 37.1403 70.0805 38.033 70.0805C38.9257 70.0805 39.6491 70.8039 39.6491 71.6971C39.6491 72.5893 38.9257 73.3127 38.033 73.3127ZM38.033 61.9994C37.1403 61.9994 36.4169 61.2751 36.4169 60.3828C36.4169 59.4896 37.1403 58.7662 38.033 58.7662C38.9257 58.7662 39.6491 59.4896 39.6491 60.3828C39.6491 61.2751 38.9257 61.9994 38.033 61.9994ZM46.5187 41.3889C45.19 43.3633 43.3327 44.8439 41.2093 45.5886L40.3981 45.8722V55.3721H35.6679V45.8722L34.8568 45.5886C32.7333 44.844 30.876 43.3634 29.5473 41.3889C28.2187 39.4145 27.4244 36.9559 27.4244 34.2773C27.4239 30.9669 28.6393 27.9894 30.5732 25.8519C31.5402 24.7831 32.6846 23.9267 33.9453 23.3373C35.2064 22.7479 36.5823 22.4248 38.033 22.4238C39.4838 22.4247 40.8596 22.7479 42.1207 23.3373C44.0113 24.2198 45.6422 25.7091 46.8007 27.6044C47.9591 29.4997 48.6415 31.7945 48.6415 34.2772C48.6416 36.9559 47.8473 39.4145 46.5187 41.3889Z" fill="white"/>
<path d="M81.2541 22.0303C80.4805 21.2548 79.3983 20.7707 78.2148 20.7716C77.0312 20.7706 75.949 21.2548 75.1755 22.0303C74.3999 22.8049 73.9157 23.8862 73.9177 25.0696V37.8529C73.9157 38.3593 73.8146 38.7595 73.6562 39.0963C73.5376 39.348 73.3833 39.566 73.2039 39.7559C73.0246 39.947 72.8142 40.1052 72.5943 40.2344V25.0696C72.5953 23.8862 72.1121 22.8049 71.3366 22.0303C70.562 21.2548 69.4798 20.7707 68.2968 20.7716C67.1142 20.7706 66.032 21.2548 65.258 22.0303C64.482 22.8049 63.9987 23.8862 63.9993 25.0696V40.2363C63.7075 40.0645 63.4335 39.836 63.2194 39.5563C63.0578 39.347 62.9253 39.1087 62.8302 38.8309C62.7352 38.5531 62.6768 38.2329 62.6768 37.8528V25.0696C62.6773 23.8862 62.194 22.8049 61.4181 22.0303C60.6441 21.2548 59.5619 20.7707 58.3792 20.7716C57.1962 20.7706 56.114 21.2548 55.3399 22.0303C54.5644 22.8049 54.0807 23.8862 54.0812 25.0696V38.5869C54.0808 40.2411 54.3913 41.7284 54.9401 43.0286C55.3514 44.0038 55.894 44.8729 56.5248 45.6368C57.4721 46.7837 58.614 47.6933 59.8227 48.408C60.9449 49.0706 62.1256 49.5655 63.283 49.9282V56.7031C62.6682 56.7475 62.1815 57.2548 62.1815 57.8809V73.88L62.181 73.8847C62.181 77.2626 64.9193 80 68.2967 80C71.6741 80 74.4125 77.2626 74.4125 73.8847V57.8809C74.4125 57.2548 73.9254 56.7475 73.3099 56.7031V49.9291C74.3295 49.6089 75.3664 49.1874 76.3657 48.6386C77.9949 47.7434 79.5323 46.5079 80.6677 44.8382C81.2367 44.0039 81.6998 43.0626 82.018 42.0189C82.3383 40.9742 82.5119 39.8285 82.5119 38.587V25.0696C82.5139 23.8862 82.0296 22.8049 81.2541 22.0303ZM68.2968 74.6352C67.4041 74.6352 66.6807 73.9118 66.6807 73.0186C66.6807 72.1264 67.4041 71.403 68.2968 71.403C69.1895 71.403 69.9129 72.1264 69.9129 73.0186C69.9129 73.9116 69.1895 74.6352 68.2968 74.6352ZM68.2968 63.3209C67.4041 63.3209 66.6807 62.5975 66.6807 61.7054C66.6807 60.8122 67.4041 60.0888 68.2968 60.0888C69.1895 60.0888 69.9129 60.8122 69.9129 61.7054C69.9129 62.5974 69.1895 63.3209 68.2968 63.3209ZM80.088 38.5869C80.087 39.9411 79.8392 41.0899 79.4195 42.0873C79.1041 42.8337 78.6903 43.4974 78.1994 44.0935C77.4634 44.9858 76.5471 45.7245 75.5382 46.3207C74.5292 46.9168 73.4307 47.3673 72.3512 47.6874C72.3455 47.6894 72.3243 47.6952 72.2963 47.7029C72.2393 47.7193 72.1583 47.7434 72.0619 47.7781C71.9885 47.8051 71.9057 47.837 71.8139 47.8814C71.676 47.9507 71.5121 48.0366 71.3192 48.2247C71.2227 48.3201 71.1185 48.4456 71.0328 48.6173C70.947 48.789 70.8852 49.0118 70.8871 49.2395C70.8871 49.5704 70.8871 49.7526 70.8871 49.7526V56.6945H65.7075V49.7526C65.7075 49.7526 65.7075 49.5704 65.7075 49.2395C65.7089 49.0003 65.641 48.7679 65.5483 48.5933C65.4673 48.4389 65.3733 48.3241 65.285 48.2345C65.1292 48.0792 64.9908 47.9953 64.8717 47.9287C64.6933 47.8323 64.5481 47.7821 64.4338 47.7445C64.3764 47.7262 64.3278 47.7117 64.2911 47.7011L64.2482 47.6896L64.2424 47.6877C63.2832 47.4041 62.308 47.0154 61.3955 46.5138C60.0244 45.7605 58.8024 44.7593 57.9299 43.4745C57.4929 42.8321 57.1398 42.1164 56.8929 41.3101C56.6471 40.5028 56.5062 39.6029 56.5057 38.5871V25.0696C56.5067 24.5478 56.7135 24.0877 57.0545 23.7453C57.3974 23.4038 57.858 23.1975 58.3793 23.1964C58.9007 23.1973 59.3614 23.4038 59.7038 23.7453C60.0448 24.0877 60.2521 24.5478 60.2526 25.0696V37.8529C60.2516 38.6969 60.4325 39.4695 60.745 40.1301C60.9789 40.627 61.2845 41.0591 61.6299 41.4236C62.1492 41.9705 62.7545 42.367 63.3714 42.6312C63.9897 42.8955 64.6196 43.0325 65.2335 43.0344H66.5506L66.4416 41.7216C66.4291 41.5741 66.4233 41.4496 66.4238 41.3782V25.0696C66.4242 24.5478 66.6316 24.0877 66.972 23.7453C67.3149 23.4038 67.7754 23.1975 68.2968 23.1964C68.8182 23.1973 69.2787 23.4038 69.6217 23.7453C69.9627 24.0877 70.1694 24.5478 70.1705 25.0696V41.3783C70.1705 41.4498 70.1648 41.5742 70.1522 41.7218L70.0442 43.0345H71.3598C71.9067 43.0325 72.4642 42.9236 73.017 42.7152C73.8406 42.4017 74.6615 41.8557 75.2952 41.0359C75.6106 40.627 75.8748 40.1504 76.0582 39.6141C76.2415 39.0788 76.3418 38.4856 76.3418 37.8528V25.0696C76.3428 24.5478 76.5491 24.0877 76.8906 23.7453C77.233 23.4038 77.6931 23.1975 78.2151 23.1964C78.7369 23.1973 79.197 23.4038 79.5394 23.7453C79.8809 24.0877 80.0873 24.5478 80.0882 25.0696V38.5869H80.088Z" fill="white"/>
</g>
<defs>
<filter id="filter0_d_9_14" x="0" y="0" width="108" height="108" filterUnits="userSpaceOnUse" color-interpolation-filters="sRGB">
<feFlood flood-opacity="0" result="BackgroundImageFix"/>
<feColorMatrix in="SourceAlpha" type="matrix" values="0 0 0 0 0 0 0 0 0 0 0 0 0 0 0 0 0 0 127 0" result="hardAlpha"/>
<feOffset dy="4"/>
<feGaussianBlur stdDeviation="2"/>
<feComposite in2="hardAlpha" operator="out"/>
<feColorMatrix type="matrix" values="0 0 0 0 0 0 0 0 0 0 0 0 0 0 0 0 0 0 0.25 0"/>
<feBlend mode="normal" in2="BackgroundImageFix" result="effect1_dropShadow_9_14"/>
<feBlend mode="normal" in="SourceGraphic" in2="effect1_dropShadow_9_14" result="shape"/>
</filter>
</defs>
</svg>
