<svg width="108" height="108" viewBox="0 0 108 108" fill="none" xmlns="http://www.w3.org/2000/svg">
<g filter="url(#filter0_d_9_7)">
<rect x="4" width="100" height="100" rx="10" fill="black"/>
<rect x="14" y="10" width="80" height="80" rx="40" fill="white"/>
<path fill-rule="evenodd" clip-rule="evenodd" d="M14 50C14 27.9091 31.9091 10 54 10C76.0909 10 94 27.9091 94 50C94 72.0909 76.0909 90 54 90C31.9091 90 14 72.0909 14 50ZM39.4545 28.1818C38.4901 28.1818 37.5652 28.5649 36.8832 29.2469C36.2013 29.9288 35.8182 30.8538 35.8182 31.8182C35.8182 32.7826 36.2013 33.7075 36.8832 34.3895C37.5652 35.0714 38.4901 35.4545 39.4545 35.4545H50.3636C51.6 35.4545 53.5345 35.8545 55.0545 36.9527C55.7455 37.4473 56.4073 38.12 56.8909 39.0909H39.4436C38.4792 39.0909 37.5543 39.474 36.8723 40.156C36.1904 40.8379 35.8073 41.7628 35.8073 42.7273C35.8073 43.6917 36.1904 44.6166 36.8723 45.2986C37.5543 45.9805 38.4792 46.3636 39.4436 46.3636H56.8909C56.4668 47.2174 55.837 47.9522 55.0582 48.5018C53.6742 49.451 52.0416 49.972 50.3636 50H39.4436C38.6899 49.9996 37.9547 50.2335 37.3397 50.6692C36.7247 51.105 36.2603 51.7211 36.0107 52.4323C35.7611 53.1435 35.7387 53.9146 35.9466 54.6391C36.1544 55.3636 36.5823 56.0056 37.1709 56.4764L55.3636 71.0218C55.7366 71.3203 56.1647 71.5424 56.6235 71.6754C57.0822 71.8084 57.5627 71.8497 58.0375 71.7971C58.5122 71.7444 58.972 71.5987 59.3904 71.3684C59.8089 71.138 60.1779 70.8275 60.4764 70.4545C60.7748 70.0816 60.9969 69.6535 61.1299 69.1947C61.2629 68.7359 61.3043 68.2555 61.2516 67.7807C61.1989 67.3059 61.0533 66.8462 60.8229 66.4277C60.5926 66.0093 60.282 65.6403 59.9091 65.3418L49.8109 57.2727H50.3564C52.76 57.2727 56.28 56.5818 59.3018 54.4036C61.9936 52.4763 63.8606 49.6057 64.5309 46.3636H68.5455C69.5099 46.3636 70.4348 45.9805 71.1168 45.2986C71.7987 44.6166 72.1818 43.6917 72.1818 42.7273C72.1818 41.7628 71.7987 40.8379 71.1168 40.156C70.4348 39.474 69.5099 39.0909 68.5455 39.0909H64.5309C64.2585 37.8223 63.8093 36.5982 63.1964 35.4545H68.5455C69.5099 35.4545 70.4348 35.0714 71.1168 34.3895C71.7987 33.7075 72.1818 32.7826 72.1818 31.8182C72.1818 30.8538 71.7987 29.9288 71.1168 29.2469C70.4348 28.5649 69.5099 28.1818 68.5455 28.1818H39.4545Z" fill="black"/>
</g>
<defs>
<filter id="filter0_d_9_7" x="0" y="0" width="108" height="108" filterUnits="userSpaceOnUse" color-interpolation-filters="sRGB">
<feFlood flood-opacity="0" result="BackgroundImageFix"/>
<feColorMatrix in="SourceAlpha" type="matrix" values="0 0 0 0 0 0 0 0 0 0 0 0 0 0 0 0 0 0 127 0" result="hardAlpha"/>
<feOffset dy="4"/>
<feGaussianBlur stdDeviation="2"/>
<feComposite in2="hardAlpha" operator="out"/>
<feColorMatrix type="matrix" values="0 0 0 0 0 0 0 0 0 0 0 0 0 0 0 0 0 0 0.25 0"/>
<feBlend mode="normal" in2="BackgroundImageFix" result="effect1_dropShadow_9_7"/>
<feBlend mode="normal" in="SourceGraphic" in2="effect1_dropShadow_9_7" result="shape"/>
</filter>
</defs>
</svg>
