<svg width="108" height="108" viewBox="0 0 108 108" fill="none" xmlns="http://www.w3.org/2000/svg">
<g filter="url(#filter0_d_9_23)">
<rect x="4" width="100" height="100" rx="10" fill="black"/>
<path d="M84 65V77C84 77.7956 83.6839 78.5587 83.1213 79.1213C82.5587 79.6839 81.7956 80 81 80H69C68.2044 80 67.4413 79.6839 66.8787 79.1213C66.3161 78.5587 66 77.7956 66 77V65C66 64.2044 66.3161 63.4413 66.8787 62.8787C67.4413 62.3161 68.2044 62 69 62H72V57.5C72 57.1022 71.842 56.7206 71.5607 56.4393C71.2794 56.158 70.8978 56 70.5 56H37.5C37.1022 56 36.7206 56.158 36.4393 56.4393C36.158 56.7206 36 57.1022 36 57.5V62H39C39.7956 62 40.5587 62.3161 41.1213 62.8787C41.6839 63.4413 42 64.2044 42 65V77C42 77.7956 41.6839 78.5587 41.1213 79.1213C40.5587 79.6839 39.7956 80 39 80H27C26.2044 80 25.4413 79.6839 24.8787 79.1213C24.3161 78.5587 24 77.7956 24 77V65C24 64.2044 24.3161 63.4413 24.8787 62.8787C25.4413 62.3161 26.2044 62 27 62H30V53C30 52.2044 30.3161 51.4413 30.8787 50.8787C31.4413 50.3161 32.2044 50 33 50H51V41H45C44.2044 41 43.4413 40.6839 42.8787 40.1213C42.3161 39.5587 42 38.7956 42 38V23C42 22.2044 42.3161 21.4413 42.8787 20.8787C43.4413 20.3161 44.2044 20 45 20H63C63.7956 20 64.5587 20.3161 65.1213 20.8787C65.6839 21.4413 66 22.2044 66 23V38C66 38.7956 65.6839 39.5587 65.1213 40.1213C64.5587 40.6839 63.7956 41 63 41H57V50H75C75.7956 50 76.5587 50.3161 77.1213 50.8787C77.6839 51.4413 78 52.2044 78 53V62H81C81.7956 62 82.5587 62.3161 83.1213 62.8787C83.6839 63.4413 84 64.2044 84 65Z" fill="white"/>
</g>
<defs>
<filter id="filter0_d_9_23" x="0" y="0" width="108" height="108" filterUnits="userSpaceOnUse" color-interpolation-filters="sRGB">
<feFlood flood-opacity="0" result="BackgroundImageFix"/>
<feColorMatrix in="SourceAlpha" type="matrix" values="0 0 0 0 0 0 0 0 0 0 0 0 0 0 0 0 0 0 127 0" result="hardAlpha"/>
<feOffset dy="4"/>
<feGaussianBlur stdDeviation="2"/>
<feComposite in2="hardAlpha" operator="out"/>
<feColorMatrix type="matrix" values="0 0 0 0 0 0 0 0 0 0 0 0 0 0 0 0 0 0 0.25 0"/>
<feBlend mode="normal" in2="BackgroundImageFix" result="effect1_dropShadow_9_23"/>
<feBlend mode="normal" in="SourceGraphic" in2="effect1_dropShadow_9_23" result="shape"/>
</filter>
</defs>
</svg>
