<svg width="108" height="108" viewBox="0 0 108 108" fill="none" xmlns="http://www.w3.org/2000/svg">
<g filter="url(#filter0_d_9_30)">
<rect x="4" width="100" height="100" rx="10" fill="black"/>
<path fill-rule="evenodd" clip-rule="evenodd" d="M33.4129 25.7004C34.3435 26.6329 34.342 28.1434 33.4095 29.0741C28.0703 34.4027 24.7711 41.7635 24.7711 49.8993C24.7711 58.1304 28.1479 65.5683 33.5978 70.911C34.5386 71.8334 34.5536 73.3436 33.6313 74.2845C32.709 75.2253 31.1986 75.2403 30.2578 74.3178C23.9303 68.1151 20 59.4641 20 49.8993C20 40.4455 23.8398 31.884 30.0392 25.697C30.9717 24.7664 32.4822 24.7678 33.4129 25.7004ZM75.2381 25.9306C76.179 25.0083 77.6892 25.0233 78.6116 25.9642C84.6553 32.1293 88.386 40.5811 88.386 49.8993C88.386 59.3286 84.5663 67.8702 78.3953 74.0532C77.4646 74.9858 75.9541 74.9874 75.0218 74.0567C74.0892 73.126 74.0876 71.6155 75.0183 70.6829C80.333 65.3577 83.6149 58.014 83.6149 49.8993C83.6149 41.8797 80.4094 34.6136 75.2047 29.3042C74.2823 28.3633 74.2972 26.853 75.2381 25.9306ZM42.4536 35.5464C43.3539 36.5084 43.3038 38.018 42.3418 38.9182C39.3236 41.7427 37.4941 45.6059 37.4941 49.8426C37.4941 54.1287 39.3666 58.0334 42.4483 60.8662C43.4183 61.7577 43.4818 63.2667 42.5902 64.2368C41.6986 65.2066 40.1894 65.2702 39.2195 64.3787C35.2347 60.7157 32.723 55.5686 32.723 49.8426C32.723 44.1835 35.1769 39.0888 39.0818 35.4346C40.0438 34.5343 41.5534 34.5844 42.4536 35.5464ZM66.0982 35.6673C67.0089 34.7152 68.5188 34.6817 69.4711 35.5923C73.2791 39.2347 75.663 44.2649 75.663 49.8426C75.663 55.4872 73.2218 60.57 69.3346 64.2222C68.3747 65.1245 66.8648 65.0775 65.9627 64.1172C65.0607 63.1569 65.1077 61.6473 66.0677 60.7453C69.0719 57.9227 70.8919 54.0686 70.8919 49.8426C70.8919 45.6663 69.1142 41.8534 66.173 39.0402C65.221 38.1295 65.1876 36.6194 66.0982 35.6673Z" fill="white"/>
<path d="M59.4613 44.9726C62.3106 47.0646 63.7353 48.1104 63.7353 49.8993C63.7353 51.6881 62.3106 52.7339 59.4613 54.8259C58.675 55.4032 57.8948 55.9471 57.1778 56.4001C56.549 56.7977 55.8368 57.2086 55.0992 57.6123C52.2569 59.168 50.8354 59.946 49.5609 59.0846C48.2861 58.2233 48.1703 56.4204 47.9387 52.8147C47.8732 51.795 47.8315 50.7953 47.8315 49.8993C47.8315 49.0032 47.8732 48.0035 47.9387 46.9838C48.1703 43.378 48.2861 41.5751 49.5609 40.7139C50.8354 39.8527 52.2569 40.6305 55.0992 42.1862C55.8368 42.5899 56.549 43.001 57.1778 43.3984C57.8948 43.8514 58.675 44.3953 59.4613 44.9726Z" fill="white"/>
</g>
<defs>
<filter id="filter0_d_9_30" x="0" y="0" width="108" height="108" filterUnits="userSpaceOnUse" color-interpolation-filters="sRGB">
<feFlood flood-opacity="0" result="BackgroundImageFix"/>
<feColorMatrix in="SourceAlpha" type="matrix" values="0 0 0 0 0 0 0 0 0 0 0 0 0 0 0 0 0 0 127 0" result="hardAlpha"/>
<feOffset dy="4"/>
<feGaussianBlur stdDeviation="2"/>
<feComposite in2="hardAlpha" operator="out"/>
<feColorMatrix type="matrix" values="0 0 0 0 0 0 0 0 0 0 0 0 0 0 0 0 0 0 0.25 0"/>
<feBlend mode="normal" in2="BackgroundImageFix" result="effect1_dropShadow_9_30"/>
<feBlend mode="normal" in="SourceGraphic" in2="effect1_dropShadow_9_30" result="shape"/>
</filter>
</defs>
</svg>
