<svg width="108" height="108" viewBox="0 0 108 108" fill="none" xmlns="http://www.w3.org/2000/svg">
<g filter="url(#filter0_d_9_6)">
<rect x="4" width="100" height="100" rx="10" fill="black"/>
<g filter="url(#filter1_d_9_6)">
<path d="M48.7399 52.1884C51.133 52.1884 53.4725 51.478 55.4623 50.1469C57.4521 48.8158 59.003 46.9239 59.9188 44.7104C60.8347 42.4969 61.0743 40.0613 60.6074 37.7114C60.1405 35.3616 58.9881 33.2031 57.2959 31.509C55.6037 29.8148 53.4477 28.6611 51.1005 28.1937C48.7533 27.7263 46.3204 27.9662 44.1094 28.883C41.8984 29.7999 40.0087 31.3526 38.6791 33.3447C37.3495 35.3367 36.6399 37.6788 36.6399 40.0747C36.6452 43.2858 37.9217 46.3639 40.1897 48.6346C42.4578 50.9052 45.5324 52.1831 48.7399 52.1884ZM48.7399 31.9455C50.3419 31.9455 51.908 32.4211 53.24 33.3121C54.572 34.2032 55.6102 35.4696 56.2233 36.9514C56.8364 38.4332 56.9968 40.0637 56.6843 41.6367C56.3717 43.2097 55.6003 44.6546 54.4675 45.7887C53.3347 46.9228 51.8914 47.6952 50.3201 48.0081C48.7489 48.3209 47.1202 48.1604 45.6402 47.5466C44.1601 46.9328 42.895 45.8934 42.005 44.5599C41.1149 43.2263 40.6399 41.6585 40.6399 40.0547C40.6452 37.9056 41.5003 35.8461 43.0182 34.3264C44.5361 32.8068 46.5933 31.9507 48.7399 31.9455ZM73.4199 76.5761C73.234 76.3884 73.0128 76.2395 72.769 76.1378C72.5253 76.0362 72.2639 75.9838 71.9999 75.9838C71.7359 75.9838 71.4745 76.0362 71.2307 76.1378C70.987 76.2395 70.7658 76.3884 70.5799 76.5761C70.3978 76.7665 70.2551 76.9911 70.1599 77.2369C70.0574 77.4776 70.0031 77.7361 69.9999 77.9977C69.9999 78.5288 70.2106 79.038 70.5857 79.4135C70.9608 79.789 71.4695 80 71.9999 80C72.5303 80 73.039 79.789 73.4141 79.4135C73.7892 79.038 73.9999 78.5288 73.9999 77.9977C73.9967 77.7361 73.9424 77.4776 73.8399 77.2369C73.7447 76.9911 73.602 76.7665 73.4199 76.5761ZM63.9999 75.9955H55.9999C55.4695 75.9955 54.9608 76.2064 54.5857 76.5819C54.2106 76.9574 53.9999 77.4667 53.9999 77.9977C53.9999 78.5288 54.2106 79.038 54.5857 79.4135C54.9608 79.789 55.4695 80 55.9999 80H63.9999C64.5303 80 65.039 79.789 65.4141 79.4135C65.7892 79.038 65.9999 78.5288 65.9999 77.9977C65.9999 77.4667 65.7892 76.9574 65.4141 76.5819C65.039 76.2064 64.5303 75.9955 63.9999 75.9955Z" fill="white"/>
<path d="M70.56 71.8508H70.7C70.8066 71.7868 70.9071 71.7131 71 71.6305L71.24 71.4303C71.3328 71.3192 71.4133 71.1983 71.48 71.0699C71.6317 70.8735 71.7221 70.6367 71.74 70.3891C71.7508 70.2692 71.7508 70.1486 71.74 70.0287C71.7534 69.8955 71.7534 69.7614 71.74 69.6282C71.748 69.5283 71.748 69.4278 71.74 69.3279C69.985 64.6432 66.8497 60.6029 62.7495 57.7424C58.6492 54.8818 53.7776 53.336 48.78 53.3097C42.2494 53.3769 36.0035 55.9957 31.3742 60.6078C26.745 65.2199 24.0988 71.4601 24 77.9977C24 78.5288 24.2107 79.0381 24.5858 79.4136C24.9609 79.789 25.4696 80 26 80H48C48.5304 80 49.0391 79.789 49.4142 79.4136C49.7893 79.0381 50 78.5288 50 77.9977C50 77.4667 49.7893 76.9574 49.4142 76.5819C49.0391 76.2064 48.5304 75.9955 48 75.9955H28.16C28.6987 70.8871 31.0921 66.1546 34.8858 62.6962C38.6795 59.2377 43.6095 57.2941 48.74 57.2342C52.9369 57.2583 57.0272 58.5603 60.4674 60.9673C63.9075 63.3742 66.5348 66.7721 68 70.7095V70.8696C68.2042 71.2665 68.5351 71.5836 68.94 71.7707H69.04C69.2668 71.8711 69.512 71.923 69.76 71.923C70.008 71.923 70.2532 71.8711 70.48 71.7707L70.56 71.8508ZM57.36 25.7384C58.0878 25.0848 58.9464 24.594 59.8786 24.2987C60.8108 24.0034 61.7951 23.9104 62.766 24.0259C63.737 24.1414 64.6721 24.4627 65.5092 24.9685C66.3463 25.4743 67.0661 26.1529 67.6206 26.9591C68.1752 27.7653 68.5517 28.6806 68.7251 29.6439C68.8985 30.6073 68.8648 31.5965 68.6263 32.5458C68.3878 33.4951 67.9499 34.3826 67.3419 35.1491C66.7338 35.9156 65.9695 36.5436 65.1 36.9912C64.8649 37.1095 64.6554 37.273 64.4835 37.4724C64.3116 37.6718 64.1805 37.9031 64.0979 38.1532C64.0152 38.4033 63.9826 38.6672 64.0018 38.9299C64.0211 39.1926 64.0918 39.4489 64.21 39.6842C64.3282 39.9196 64.4915 40.1293 64.6907 40.3014C64.8898 40.4736 65.1209 40.6048 65.3707 40.6875C65.6205 40.7702 65.8841 40.8029 66.1465 40.7837C66.4089 40.7644 66.6649 40.6936 66.9 40.5753C68.2748 39.8662 69.4828 38.8719 70.4434 37.6586C71.4041 36.4452 72.0953 35.0409 72.4711 33.539C72.8469 32.0372 72.8985 30.4724 72.6226 28.949C72.3467 27.4256 71.7495 25.9785 70.871 24.7044C69.9924 23.4303 68.8526 22.3583 67.5276 21.5599C66.2026 20.7615 64.7228 20.2551 63.1868 20.0744C61.6509 19.8937 60.0942 20.043 58.6204 20.5121C57.1466 20.9812 55.7896 21.7595 54.64 22.7951C54.447 22.9739 54.291 23.189 54.181 23.4281C54.071 23.6673 54.0091 23.9258 53.9989 24.1889C53.9887 24.452 54.0303 24.7145 54.1214 24.9615C54.2126 25.2084 54.3514 25.435 54.53 25.6283C54.7086 25.8216 54.9235 25.9777 55.1623 26.0878C55.4012 26.198 55.6594 26.2599 55.9222 26.2701C56.185 26.2804 56.4472 26.2387 56.6939 26.1474C56.9406 26.0562 57.167 25.9172 57.36 25.7384ZM64.2 42.2972C63.6696 42.2441 63.1398 42.4041 62.7272 42.7421C62.3146 43.08 62.053 43.5682 62 44.0993C61.947 44.6303 62.1068 45.1607 62.4444 45.5737C62.7819 45.9868 63.2696 46.2487 63.8 46.3018C67.8721 46.7959 71.6611 48.6424 74.5616 51.5461C77.462 54.4499 79.3064 58.2432 79.8 62.3199H74C73.4696 62.3199 72.9609 62.5309 72.5858 62.9064C72.2107 63.2819 72 63.7912 72 64.3222C72 64.8532 72.2107 65.3625 72.5858 65.738C72.9609 66.1135 73.4696 66.3245 74 66.3245H82C82.5304 66.3245 83.0391 66.1135 83.4142 65.738C83.7893 65.3625 84 64.8532 84 64.3222C83.9268 58.8721 81.8786 53.6341 78.2364 49.5827C74.5943 45.5313 69.6062 42.9423 64.2 42.2972Z" fill="white"/>
</g>
</g>
<defs>
<filter id="filter0_d_9_6" x="0" y="0" width="108" height="108" filterUnits="userSpaceOnUse" color-interpolation-filters="sRGB">
<feFlood flood-opacity="0" result="BackgroundImageFix"/>
<feColorMatrix in="SourceAlpha" type="matrix" values="0 0 0 0 0 0 0 0 0 0 0 0 0 0 0 0 0 0 127 0" result="hardAlpha"/>
<feOffset dy="4"/>
<feGaussianBlur stdDeviation="2"/>
<feComposite in2="hardAlpha" operator="out"/>
<feColorMatrix type="matrix" values="0 0 0 0 0 0 0 0 0 0 0 0 0 0 0 0 0 0 0.25 0"/>
<feBlend mode="normal" in2="BackgroundImageFix" result="effect1_dropShadow_9_6"/>
<feBlend mode="normal" in="SourceGraphic" in2="effect1_dropShadow_9_6" result="shape"/>
</filter>
<filter id="filter1_d_9_6" x="20" y="20" width="68" height="68" filterUnits="userSpaceOnUse" color-interpolation-filters="sRGB">
<feFlood flood-opacity="0" result="BackgroundImageFix"/>
<feColorMatrix in="SourceAlpha" type="matrix" values="0 0 0 0 0 0 0 0 0 0 0 0 0 0 0 0 0 0 127 0" result="hardAlpha"/>
<feOffset dy="4"/>
<feGaussianBlur stdDeviation="2"/>
<feComposite in2="hardAlpha" operator="out"/>
<feColorMatrix type="matrix" values="0 0 0 0 0 0 0 0 0 0 0 0 0 0 0 0 0 0 0.25 0"/>
<feBlend mode="normal" in2="BackgroundImageFix" result="effect1_dropShadow_9_6"/>
<feBlend mode="normal" in="SourceGraphic" in2="effect1_dropShadow_9_6" result="shape"/>
</filter>
</defs>
</svg>
